<?xml version="1.0" encoding="iso-8859-1"?>
<!-- Uploaded to: SVG Repo, www.svgrepo.com, Generator: SVG Repo Mixer Tools -->
<svg version="1.1" id="Layer_1" xmlns="http://www.w3.org/2000/svg" xmlns:xlink="http://www.w3.org/1999/xlink" 
	 viewBox="0 0 512 512" xml:space="preserve">
<rect x="160" y="357.424" style="fill:#333333;" width="192" height="108.336"/>
<polygon points="160,376.16 274.24,376.16 160,434.064 "/>
<path style="fill:#999999;" d="M377.456,487.84H134.544c-9.424,0-17.12-7.712-17.12-17.12l0,0c0-9.424,7.712-17.12,17.12-17.12
	H377.44c9.424,0,17.12,7.712,17.12,17.12l0,0C394.576,480.144,386.864,487.84,377.456,487.84z"/>
<path style="fill:#D6D6D6;" d="M480,376.16H32c-17.6,0-32-14.4-32-32v-288c0-17.6,14.4-32,32-32h448c17.6,0,32,14.4,32,32v288
	C512,361.76,497.6,376.16,480,376.16z"/>
<rect x="21.968" y="46.096" style="fill:#0BA4E0;" width="468.16" height="308.128"/>
<path style="fill:#FFFFFF;" d="M303.632,295.584c-17.12,9.024-34.56,12.448-55.424,12.448c-51.056,0-94.336-37.36-94.336-97.136
	c0-64.144,44.528-119.568,113.648-119.568c54.176,0,90.608,37.984,90.608,89.984c0,46.704-26.16,74.096-55.424,74.096
	c-12.448,0-23.968-8.4-23.04-27.392h-1.248c-10.896,18.368-25.216,27.392-43.904,27.392c-18.064,0-33.632-14.64-33.632-39.232
	c0-38.608,30.512-73.792,73.792-73.792c13.392,0,25.216,2.8,33.312,6.544l-10.592,56.352c-4.672,23.664-0.928,34.56,9.344,34.864
	c15.872,0.304,33.632-20.864,33.632-56.976c0-45.152-27.088-77.52-75.344-77.52c-50.752,0-93.408,40.16-93.408,103.376
	c0,52,33.936,84.064,80.016,84.064c17.744,0,34.256-3.744,47.008-10.896L303.632,295.584z M286.512,161.072
	c-3.12-0.928-8.4-2.176-15.568-2.176c-27.392,0-49.504,25.84-49.504,56.048c0,13.696,6.848,23.664,20.544,23.664
	c18.064,0,34.56-23.04,37.984-42.352L286.512,161.072z"/>
</svg>